<?xml version="1.0" encoding="UTF-8" standalone="no"?>
<svg
   xmlns:dc="http://purl.org/dc/elements/1.1/"
   xmlns:cc="http://creativecommons.org/ns#"
   xmlns:rdf="http://www.w3.org/1999/02/22-rdf-syntax-ns#"
   xmlns:svg="http://www.w3.org/2000/svg"
   xmlns="http://www.w3.org/2000/svg"
   xmlns:sodipodi="http://sodipodi.sourceforge.net/DTD/sodipodi-0.dtd"
   xmlns:inkscape="http://www.inkscape.org/namespaces/inkscape"
   sodipodi:docname="fill.svg"
   inkscape:version="1.0 (4035a4fb49, 2020-05-01)"
   id="svg851"
   version="1.1"
   viewBox="0 0 236.6131 72.193451"
   height="72.193451mm"
   width="236.6131mm">
  <defs
     id="defs845" />
  <sodipodi:namedview
     inkscape:window-maximized="1"
     inkscape:window-y="-8"
     inkscape:window-x="-8"
     inkscape:window-height="705"
     inkscape:window-width="1366"
     fit-margin-bottom="0"
     fit-margin-right="0"
     fit-margin-left="0"
     fit-margin-top="0"
     showgrid="false"
     inkscape:document-rotation="0"
     inkscape:current-layer="layer1"
     inkscape:document-units="mm"
     inkscape:cy="447.14285"
     inkscape:cx="431.42857"
     inkscape:zoom="0.54"
     inkscape:pageshadow="2"
     inkscape:pageopacity="0.0"
     borderopacity="1.0"
     bordercolor="#666666"
     pagecolor="#ffffff"
     id="base" />
  <metadata
     id="metadata848">
    <rdf:RDF>
      <cc:Work
         rdf:about="">
        <dc:format>image/svg+xml</dc:format>
        <dc:type
           rdf:resource="http://purl.org/dc/dcmitype/StillImage" />
        <dc:title></dc:title>
      </cc:Work>
    </rdf:RDF>
  </metadata>
  <g
     transform="translate(8.3154764,-29.860121)"
     id="layer1"
     inkscape:groupmode="layer"
     inkscape:label="Warstwa 1">
    <g
       id="g1539">
      <g
         id="g1486"
         style="stroke:none">
        <path
           id="path1418"
           d="m 139.85119,51.40476 c -6.04762,11.087304 -6.04762,11.087304 0,0"
           style="fill:none;stroke:none;stroke-width:0.264583px;stroke-linecap:butt;stroke-linejoin:miter;stroke-opacity:1" />
        <ellipse
           ry="4.9136906"
           rx="8.6934528"
           cy="37.419643"
           cx="10.205358"
           id="path1420"
           style="fill:#550000;stroke:none;stroke-width:0.264583" />
        <ellipse
           ry="2.2678571"
           rx="6.0476193"
           cy="37.797619"
           cx="-2.2678571"
           id="path1422"
           style="fill:#550000;stroke:none;stroke-width:0.264583" />
        <ellipse
           ry="6.8035712"
           rx="12.473214"
           cy="37.797619"
           cx="30.616072"
           id="path1424"
           style="fill:#550000;stroke:none;stroke-width:0.264583" />
        <ellipse
           ry="8.6934528"
           rx="16.630953"
           cy="38.931549"
           cx="58.208332"
           id="path1426"
           style="fill:#550000;stroke:none;stroke-width:0.264583" />
        <ellipse
           style="fill:#550000;stroke:none;stroke-width:0.264583"
           id="path1426-9"
           cx="89.202377"
           cy="39.309525"
           rx="16.630953"
           ry="8.6934528" />
        <ellipse
           style="fill:#550000;stroke:none;stroke-width:0.264583"
           id="path1426-91"
           cx="122.46428"
           cy="38.553574"
           rx="16.630953"
           ry="8.6934528" />
        <ellipse
           style="fill:#550000;stroke:none;stroke-width:0.264583"
           id="path1426-3"
           cx="152.70238"
           cy="40.821426"
           rx="16.630953"
           ry="8.6934528" />
        <ellipse
           style="fill:#550000;stroke:none;stroke-width:0.264583"
           id="path1426-38"
           cx="180.67261"
           cy="40.065479"
           rx="16.630953"
           ry="8.6934528" />
        <ellipse
           style="fill:#550000;stroke:none;stroke-width:0.264583"
           id="path1426-32"
           cx="211.66667"
           cy="41.577381"
           rx="16.630953"
           ry="8.6934528" />
        <ellipse
           style="fill:#550000;stroke:none;stroke-width:0.264583"
           id="path1426-5"
           cx="99.029762"
           cy="42.333332"
           rx="16.630953"
           ry="8.6934528" />
      </g>
      <path
         style="fill:#550000;stroke:none;stroke-width:2.85714"
         d="m 342.85714,185.92858 c -8.64285,-2.91973 -23.02163,-7.38772 -31.95285,-9.92888 -8.9312,-2.54115 -20.08483,-7.85669 -24.7858,-11.81231 -5.75846,-4.84543 -9.19746,-6.13993 -10.54012,-3.96749 -1.09608,1.7735 -8.58531,6.29412 -16.64277,10.04584 -20.99885,9.77751 -56.96385,9.73471 -78.07174,-0.0929 -8.16773,-3.80281 -16.3908,-9.38074 -18.27349,-12.3954 -3.33675,-5.34299 -3.73378,-5.30753 -15.74631,1.4064 -16.46141,9.20046 -43.93149,9.59008 -61.032774,0.86566 -6.492192,-3.31207 -12.482792,-7.79089 -13.312449,-9.95294 -1.212408,-3.15949 -3.41342,-2.80705 -11.214586,1.79575 -11.226905,6.62404 -31.760117,7.5859 -41.741485,1.95535 -3.677092,-2.07427 -15.6856231,-4.43141 -26.6856231,-5.23809 -15.2211519,-1.11624 -19.9999999,-2.49073 -19.9999999,-5.75241 0,-3.1746 4.444444,-4.65608 17.142857,-5.71428 9.42857143,-0.78572 21.464771,-3.78572 26.747111,-6.66667 5.28234,-2.88095 15.103283,-5.23809 21.824318,-5.23809 13.226468,0 29.946831,7.05363 30.086882,12.69241 0.04777,1.92394 1.402449,1.23902 3.010363,-1.52204 9.389337,-16.12304 51.241956,-22.32774 73.615556,-10.91358 6.309,3.21861 12.32865,7.23987 13.377,8.93612 1.28979,2.08693 3.4476,1.68903 6.6738,-1.23064 23.97499,-21.69707 85.43606,-21.62367 109.4744,0.13073 4.46937,4.04472 5.60408,3.90123 12.58717,-1.59168 10.054,-7.90846 33.04474,-14.59656 50.17654,-14.59656 7.5234,0 23.52557,3.21428 35.56043,7.14285 27.23723,8.89114 29.90306,8.8732 48.70914,-0.32777 29.50603,-14.43595 72.4714,-11.20631 92.8224,6.97732 l 8.81966,7.88036 14.6798,-7.26495 c 19.85634,-9.82679 56.43383,-10.35222 76.54072,-1.0995 l 13.27668,6.10963 14.49617,-7.17407 c 28.82869,-14.26716 71.6948,-10.77416 92.55577,7.54203 9.27409,8.14274 9.39578,8.16408 16.011,2.80738 16.09986,-13.03686 50.81995,-17.40245 76.87246,-9.66569 30.62109,9.09349 40.88169,27.73196 23.37572,42.46226 -25.06055,21.08706 -78.99506,20.59912 -103.52286,-0.93657 -9.24492,-8.11713 -9.32626,-8.13092 -16.01406,-2.71546 -18.20511,14.74161 -60.35477,17.69395 -86.63631,6.06837 l -13.10183,-5.79556 -14.49617,7.17407 c -28.62175,14.16473 -72.03315,10.74463 -92.18697,-7.26282 l -8.81966,-7.88036 -13.88763,6.87291 c -16.26471,8.04933 -44.65886,11.16294 -60.8966,6.67773 -9.60709,-2.65367 -12.09877,-2.3082 -18.25009,2.53043 -17.669,13.89843 -53.67417,17.76724 -80.62377,8.66313 z"
         id="path1488"
         transform="scale(0.26458333)" />
      <rect
         style="fill:#550000;stroke:none;stroke-width:0.264583"
         id="rect1490"
         width="227.54166"
         height="61.988094"
         x="-0.75595242"
         y="40.065475" />
      <rect
         style="fill:#550000;stroke:none;stroke-width:0.264583"
         id="rect1492"
         width="31.75"
         height="3.0238104"
         x="-0.75595242"
         y="40.065475" />
      <rect
         style="fill:#550000;stroke:none;stroke-width:0.264583"
         id="rect1494"
         width="31.75"
         height="3.0238113"
         x="-0.75595242"
         y="40.065475" />
      <rect
         style="fill:#550000;stroke:none;stroke-width:0.264583"
         id="rect1499"
         width="16.630951"
         height="6.0476203"
         x="14.363094"
         y="37.041668" />
      <rect
         style="fill:#550000;stroke:none;stroke-width:0.264583"
         id="rect1504"
         width="25.702381"
         height="61.232143"
         x="-7.5595241"
         y="40.065475" />
      <rect
         style="fill:#550000;stroke:none;stroke-width:0.264583"
         id="rect1506"
         width="6.8035717"
         height="3.0238113"
         x="-7.5595241"
         y="40.065475" />
      <rect
         style="fill:#550000;stroke:none;stroke-width:0.264583"
         id="rect1508"
         width="6.8035717"
         height="0.75595093"
         x="-7.5595241"
         y="101.29762" />
      <rect
         style="fill:#550000;stroke:none;stroke-width:0.264583"
         id="rect1510"
         width="21.922617"
         height="3.0238113"
         x="-7.5595241"
         y="40.065475" />
      <rect
         style="fill:#550000;stroke:none;stroke-width:0.264583"
         id="rect1515"
         width="12.739197"
         height="7.3495374"
         x="-7.1255507"
         y="36.390705" />
    </g>
  </g>
</svg>
